<?xml version="1.0" encoding="iso-8859-1"?>
<!-- Generator: Adobe Illustrator 19.0.0, SVG Export Plug-In . SVG Version: 6.00 Build 0)  -->
<svg version="1.1" id="Layer_1" xmlns="http://www.w3.org/2000/svg" xmlns:xlink="http://www.w3.org/1999/xlink" x="0px" y="0px"
	 viewBox="0 0 512.043 512.043" style="enable-background:new 0 0 512.043 512.043;" xml:space="preserve">
<g>
	<g>
		<path d="M505.773,240.915L271.106,6.248c-8.331-8.331-21.839-8.331-30.17,0L6.27,240.915c-4.001,4.001-6.248,9.427-6.248,15.085
			v234.667c0,19.006,22.979,28.524,36.418,15.085L256.021,286.17l219.582,219.582c13.439,13.439,36.418,3.921,36.418-15.085V256
			C512.021,250.342,509.774,244.916,505.773,240.915z M469.355,439.163L271.106,240.915c-8.331-8.331-21.839-8.331-30.17,0
			L42.688,439.163V264.837L256.021,51.503l213.333,213.333V439.163z"/>
	</g>
</g>
<g>
</g>
<g>
</g>
<g>
</g>
<g>
</g>
<g>
</g>
<g>
</g>
<g>
</g>
<g>
</g>
<g>
</g>
<g>
</g>
<g>
</g>
<g>
</g>
<g>
</g>
<g>
</g>
<g>
</g>
</svg>
